<svg xmlns="http://www.w3.org/2000/svg" viewBox="0 0 200 200" role="img" aria-label="Finanzas Conductuales">
  <title>Finanzas Conductuales</title>
  <rect width="200" height="200" rx="46" fill="#0b2218"/>
  <path d="M40 170C40 110 70 60 100 45c30-15 70 5 70 45 0 35-25 60-55 65-25 3-40-10-45-25-5-15 2-28 15-32 13-4 23 2 23 14" fill="none" stroke="#2d9b6f" stroke-width="3.5" stroke-linecap="round"/>
  <circle cx="108" cy="112" r="5" fill="#2d9b6f"/>
  <path d="m28 155 34-27 20 10 28-30 28 7 30-25" fill="none" stroke="#5dcaa5" stroke-width="2.5" stroke-linecap="round" stroke-linejoin="round"/>
  <circle cx="168" cy="90" r="4.5" fill="#5dcaa5"/>
  <rect x="28" y="174" width="144" height="1.5" rx="1" fill="#1a4a30"/>
</svg>
